<svg xmlns="http://www.w3.org/2000/svg" viewBox="0 0 48 48" width="50px" height="50px">
  <linearGradient id="SVGID_1_" x1="37.081" x2="10.918" y1="10.918" y2="37.081" gradientUnits="userSpaceOnUse">
    <stop offset=".014" stop-color="#fe6d60" />
    <stop offset=".046" stop-color="#fe766a" />
    <stop offset=".208" stop-color="#fea097" />
    <stop offset=".37" stop-color="#ffc2bd" />
    <stop offset=".532" stop-color="#ffddda" />
    <stop offset=".692" stop-color="#fff0ee" />
    <stop offset=".849" stop-color="#fffbfb" />
    <stop offset="1" stop-color="#fff" />
  </linearGradient>
  <circle cx="24" cy="24" r="18.5" fill="url(#SVGID_1_)" />
  <path fill="#e02f24" d="M19.08,41.84c0.97-1.47,1.45-2.84,1.85-4.31l1.03-4.07c1.08,1.02,2.6,1.54,4.54,1.54 c5.24,0,9.5-5.27,9.5-11.75C36,16.84,30.84,12,24,12c-6.62,0-12,5.05-12,11.25c0,2.98,1.15,5.69,3.17,7.63 c0.24,0.23,0.65,0.1,0.73-0.22l0.56-2.33c0.06-0.24,0-0.49-0.14-0.7C15.6,26.61,15,25.19,15,23.25C15,18.7,19.04,15,24,15 c0.82,0,8,0.24,8,8.5c0,4.09-1.88,8.5-6,8.5c-1.04-0.07-1.78-0.41-2.21-0.96c-0.74-0.98-0.56-2.64-0.34-3.51l0.77-3.02 c0.2-0.8,0.28-1.48,0.28-2.06c0-1.95-1.18-2.95-2.5-2.95c-1.78,0-3,1.89-3,3.78c0,1.03,0.16,2.13,0.5,3.11l-2.27,9.42 c0,0-0.23,0.61-0.23,2.61c0,0.51,0.06,1.67,0.13,2.76L19.08,41.84z" />
  <path fill="none" stroke="#e02f24" stroke-linecap="round" stroke-linejoin="round" stroke-width="3" d="M31.572,40.884C29.261,41.922,26.698,42.5,24,42.5C13.783,42.5,5.5,34.217,5.5,24 c0-3.723,1.1-7.189,2.992-10.091" />
  <path fill="none" stroke="#e02f24" stroke-linecap="round" stroke-linejoin="round" stroke-width="3" d="M15.018,7.823C17.678,6.343,20.741,5.5,24,5.5c10.217,0,18.5,8.283,18.5,18.5c0,4.51-1.614,8.644-4.296,11.854" />
</svg>